<!-- icon666.com - MILLIONS vector ICONS FREE --><svg id="Layer_1" enable-background="new 0 0 48 48" viewBox="0 0 48 48" xmlns="http://www.w3.org/2000/svg"><path d="m44 12h-31.38l-.64-3.2c-.09-.46-.5-.8-.98-.8h-7c-.55 0-1 .45-1 1s.45 1 1 1h6.18l3.66 18.32c-.56.22-1.08.56-1.52 1-.85.84-1.32 1.97-1.32 3.18 0 2.35 1.82 4.27 4.13 4.46.43 1.74 2 3.04 3.87 3.04 1.86 0 3.41-1.28 3.86-3h8.28c.45 1.72 2 3 3.86 3s3.41-1.28 3.86-3h.14c.55 0 1-.45 1-1s-.45-1-1-1h-.14c-.45-1.72-2-3-3.86-3s-3.41 1.28-3.86 3h-8.28c-.45-1.72-2-3-3.86-3-1.85 0-3.39 1.26-3.85 2.96-1.21-.17-2.15-1.2-2.15-2.46 0-.67.26-1.29.74-1.77.47-.47 1.09-.73 1.76-.73h19.5 3c.42 0 .79-.26.94-.65l6-16c.12-.31.07-.65-.11-.92-.2-.27-.5-.43-.83-.43zm-9 22c1.1 0 2 .9 2 2s-.9 2-2 2-2-.9-2-2 .9-2 2-2zm-16 0c1.1 0 2 .9 2 2s-.9 2-2 2-2-.9-2-2 .9-2 2-2zm18.31-6h-2.31-19.17l-2.63-14h29.35z"></path></svg>