<!-- icon666.com - MILLIONS vector ICONS FREE --><svg viewBox="0 0 128 128" xmlns="http://www.w3.org/2000/svg"><path d="m64 5.55a58.445 58.445 0 1 0 58.45 58.45 58.516 58.516 0 0 0 -58.45-58.45zm0 3.5a54.942 54.942 0 0 1 40.889 91.65 43.2 43.2 0 0 0 -30.827-28.077 23.113 23.113 0 1 0 -20.124 0 43.2 43.2 0 0 0 -30.827 28.077 54.942 54.942 0 0 1 40.889-91.65zm0 62.38h-.027a19.613 19.613 0 1 1 .054 0zm-38.125 32.116a39.7 39.7 0 0 1 38.083-28.615h.084a39.7 39.7 0 0 1 38.083 28.615 54.882 54.882 0 0 1 -76.25 0z"></path></svg>